# xmcd
#
# Track frame offsets:
#	150
#	16161
#	32966
#	47824
#	67878
#	86448
#	99658
#	118125
#	138651
#	155891
#	170346
#	183964
#	201280
#	220284
#
# Disc length: 3125 seconds
#
# Revision: 4
# Processed by: cddbd v1.5.2PL0 Copyright (c) Steve Scherf et al.
# Submitted via: EZCDAudioConverter 8.2.2.1
#
DISCID=c80c330e
DTITLE=ZEZÉ DI CAMARGO and LUCIANO - RARIDADES [CD 0712-2) GLOBO SONY BMG
DYEAR=2007
DGENRE=Country
TTITLE0=NÃO APRENDI A DIZER ADEUS (PART. ESP. LEANDRO) (BY GILMAR SINISTRO)
TTITLE1=A FERRO E FOGO (PART. ESP. DANIEL) (BY GILMAR SINISTRO) 
TTITLE2=EU NASCI PRA AMAR VOCÊ (BORN TO GIVE MY LOVE TO YOU) (PART. ESP. VANES
TTITLE2=SA CAMARGO) (BY GILMAR SINISTRO)
TTITLE3=RETROVISOR (PART. ESP. FAGNER) (BY GILMAR SINISTRO)
TTITLE4=MINHA HISTÓRIA (GESÚ BAMBINO) (PART. ESP. CHICO BUARQUE) (BY GILMAR SI
TTITLE4=NISTRO)
TTITLE5=EU SÓ QUERO UM XODÓ (PART. ESP. DANIELA MERCURY) (BY GILMAR SINISTRO)
TTITLE6=TENHO SEDE (PART. ESP. DOMINGUINHOS) (BY GILMAR SINISTRO) 
TTITLE7=DOIS AMIGOS (PART. ESP. JULIO IGLESIAS) (BY GILMAR SINISTRO) 
TTITLE8=EU SÓ PENSO EM VOCÊ (ALWAYS ON MY MIND) (PART. ESP. WILLIE NELSON) (BY
TTITLE8=GILMAR SINISTRO)
TTITLE9=AMOR QUE FICA (PART. ESP. IVETE SANGALO) (BY GILMAR SINISTRO) 
TTITLE10=POMBINHA BRANCA (VOLA COLOMBA) (PART. ESP. CHITÃOZINHO and XORORÓ) (BY 
TTITLE10=GILMAR SINISTRO) 
TTITLE11=TODAS AS MANHÃS (PART. ESP. SÉRGIO REIS) (BY GILMAR SINISTRO) 
TTITLE12=COMO VAI VOCÊ (PART. ESP. ANTONIO MARCOS) (BY GILMAR SINISTRO) 
TTITLE13=FALHASTE, CORAÇÃO (FALLASTE, CORAZON) (PART. ESP. ANGELA MARIA) (BY G
TTITLE13=ILMAR SINISTRO) 
EXTD=
EXTT0=
EXTT1=
EXTT2=
EXTT3=
EXTT4=
EXTT5=
EXTT6=
EXTT7=
EXTT8=
EXTT9=
EXTT10=
EXTT11=
EXTT12=
EXTT13=
PLAYORDER=
